# xmcd
#
# Track frame offsets:
# 150
# 20815
# 39244
# 54860
# 71459
# 85819
# 106839
# 123867
# 142159
# 156773
# 163376
# 178374
# 188702
# 200332
# 218946
#
# Disc length: 3342 seconds
#
#
# Revision: 0
# Processed by: cddbd v1.5.2PL0 Copyright (c) Steve Scherf et al.
# Submitted via: FreeRIP 2.70 
#
DISCID=d40d0c0f
DTITLE=Nessi Tausendschön - Hide and Speak (15)
DYEAR=2008
DGENRE=
TTITLE0=Like Steel
TTITLE1=Come On In
TTITLE2=Rescue
TTITLE3=That Night in Goa
TTITLE4=Empty
TTITLE5=Hey Good Lookin
TTITLE6=Reason
TTITLE7=Midnight
TTITLE8=I`M So Lonesome
TTITLE9=Howling At the Moon
TTITLE10=Evolution
TTITLE11=Hey Little Man
TTITLE12=Free the Horinya Islands
TTITLE13=Trust in Me
TTITLE14=Until You Sleep
EXTD=
EXTT0=
EXTT1=
EXTT2=
EXTT3=
EXTT4=
EXTT5=
EXTT6=
EXTT7=
EXTT8=
EXTT9=
EXTT10=
EXTT11=
EXTT12=
EXTT13=
EXTT14=
PLAYORDER=
